<svg id="Layer_1" height="512" viewBox="0 0 512 512" width="512" xmlns="http://www.w3.org/2000/svg" data-name="Layer 1" style="fill:#0db7c4;"><path d="m484.642 27.358a6.005 6.005 0 0 0 -6.117-1.457l-108.3 35.607a6 6 0 0 0 -2.372 1.461l-325.578 326.094a57.037 57.037 0 0 0 80.663 80.662l326.093-325.577a6 6 0 0 0 1.461-2.372l35.608-108.301a6 6 0 0 0 -1.458-6.117zm-115.627 51.429 13.285 41.959-232.312 232.311-27.426-27.425zm-254.556 382.446a45.037 45.037 0 0 1 -63.692-63.692l18.339-18.368 63.721 63.721zm26.86-26.818-63.734-63.734 36.5-36.557 63.792 63.792zm45.049-44.977-27.895-27.895 232.088-232.089 42.971 13.212zm254.577-257.047-46.945-14.433-14.8-46.768 45.152-14.845 31.306 31.307zm18.909-57.511-22.734-22.734 33.87-11.135z"/></svg>