<svg id="Facebook" xmlns="http://www.w3.org/2000/svg" width="42" height="42" viewBox="0 0 42 42">
  <path id="Icon_awesome-facebook-square" data-name="Icon awesome-facebook-square" d="M37.5,3.125H4.5A4.5,4.5,0,0,0,0,7.625v33a4.5,4.5,0,0,0,4.5,4.5H17.367V30.846H11.461V24.125h5.906V19c0-5.827,3.469-9.045,8.782-9.045a35.781,35.781,0,0,1,5.2.454V16.13H28.422c-2.888,0-3.789,1.792-3.789,3.631v4.364h6.448L30.05,30.846H24.633V45.125H37.5a4.5,4.5,0,0,0,4.5-4.5v-33a4.5,4.5,0,0,0-4.5-4.5Z" transform="translate(0 -3.125)" fill="#0db7c4"/>
</svg>
