<svg id="mail" xmlns="http://www.w3.org/2000/svg" width="42.242" height="42.042" viewBox="0 0 42.242 42.042">
  <path id="Path_14" data-name="Path 14" d="M105.346,105.8v-1.734a1.614,1.614,0,0,0-1.614-1.614H82.02a1.614,1.614,0,0,0-1.614,1.614v16.969a1.614,1.614,0,0,0,1.614,1.614h21.713a1.614,1.614,0,0,0,1.614-1.614V105.8Zm-4.642-.12-7.819,4.4-7.651-4.4Zm-17.07,13.741V108.481l8.438,4.854a1.613,1.613,0,0,0,1.6.007l8.451-4.757v10.834H83.634Z" transform="translate(-71.755 -91.527)" fill="#0db7c4"/>
  <path id="Path_15" data-name="Path 15" d="M33.431.929H8.811A8.821,8.821,0,0,0,0,9.74V34.16a8.821,8.821,0,0,0,8.811,8.811h24.62a8.821,8.821,0,0,0,8.811-8.811V9.74A8.821,8.821,0,0,0,33.431.929ZM39.015,34.16a5.59,5.59,0,0,1-5.584,5.584H8.811A5.59,5.59,0,0,1,3.228,34.16V9.74A5.59,5.59,0,0,1,8.811,4.157h24.62A5.59,5.59,0,0,1,39.015,9.74V34.16Z" transform="translate(0 -0.929)" fill="#0db7c4"/>
</svg>
