<?xml version="1.0" encoding="iso-8859-1"?>
<!-- Generator: Adobe Illustrator 19.0.0, SVG Export Plug-In . SVG Version: 6.00 Build 0)  -->
<svg version="1.1" id="Capa_1" xmlns="http://www.w3.org/2000/svg" xmlns:xlink="http://www.w3.org/1999/xlink" x="0px" y="0px"
	 viewBox="0 0 512 512" style="enable-background:new 0 0 512 512; fill:#0db7c4;" xml:space="preserve">
<g>
	<g>
		<path d="M477.931,313.493l-33.067-33.067c-12.971-12.971-34.112-12.971-47.083,0c-3.883,3.904-6.613,8.533-8.171,13.44
			c-11.669-4.053-25.173-1.429-34.496,7.893c-4.885,4.885-7.915,10.923-9.131,17.237c-10.197-1.451-20.8,2.027-28.203,9.429
			c-2.987,2.965-5.269,6.379-6.891,10.027l-19.115-19.115c-12.587-12.565-34.517-12.565-47.083,0
			c-6.293,6.293-9.771,14.656-9.771,23.552s3.477,17.259,9.771,23.552L326.251,448h-16.917C279.936,448,256,471.936,256,501.333
			c0,5.888,4.779,10.667,10.667,10.667h129.067C459.84,512,512,459.84,512,395.733C512,364.693,499.904,335.488,477.931,313.493z
			 M395.733,490.667H279.147c4.416-12.416,16.277-21.333,30.187-21.333H352c4.309,0,8.213-2.603,9.856-6.592
			c1.664-3.989,0.747-8.576-2.304-11.627l-99.755-99.755c-2.261-2.24-3.52-5.269-3.52-8.448c0-3.179,1.259-6.187,3.52-8.448
			c4.523-4.501,12.416-4.501,16.917,0l67.755,67.755c4.16,4.16,10.923,4.16,15.083,0c2.069-2.091,3.115-4.821,3.115-7.552
			s-1.045-5.461-3.115-7.552l-26.667-26.667c-2.261-2.24-3.499-5.269-3.499-8.448c0-3.179,1.237-6.187,3.499-8.448
			c4.523-4.523,12.395-4.523,16.917,0l16,16c4.16,4.16,10.923,4.16,15.083,0c2.069-2.091,3.115-4.821,3.115-7.552
			c0-2.731-1.045-5.461-3.115-7.552l-10.667-10.667c-2.261-2.24-3.499-5.269-3.499-8.448c0-3.179,1.237-6.187,3.499-8.448
			c4.672-4.672,12.245-4.672,16.917,0l10.667,10.667c4.16,4.16,10.923,4.16,15.083,0c2.069-2.091,3.115-4.821,3.115-7.552
			s-1.045-5.461-3.115-7.531c-4.672-4.672-4.672-12.245,0-16.917s12.245-4.672,16.917,0l33.067,33.067
			c17.92,17.92,27.797,41.771,27.797,67.115C490.667,448.085,448.085,490.667,395.733,490.667z"/>
	</g>
</g>
<g>
	<g>
		<path d="M309.333,0h-256C23.936,0,0,23.936,0,53.333v405.333C0,488.064,23.936,512,53.333,512H224
			c5.888,0,10.667-4.779,10.667-10.667c0-5.888-4.779-10.667-10.667-10.667H53.333c-17.643,0-32-14.357-32-32V53.333
			c0-17.643,14.357-32,32-32h256c17.643,0,32,14.357,32,32v213.333c0,5.888,4.779,10.667,10.667,10.667
			c5.888,0,10.667-4.779,10.667-10.667V53.333C362.667,23.936,338.731,0,309.333,0z"/>
	</g>
</g>
<g>
	<g>
		<path d="M245.333,405.333H10.667C4.779,405.333,0,410.112,0,416c0,5.888,4.779,10.667,10.667,10.667h234.667
			c5.888,0,10.667-4.779,10.667-10.667C256,410.112,251.221,405.333,245.333,405.333z"/>
	</g>
</g>
<g>
	<g>
		<path d="M202.667,448H160c-5.888,0-10.667,4.779-10.667,10.667s4.779,10.667,10.667,10.667h42.667
			c5.888,0,10.667-4.779,10.667-10.667S208.555,448,202.667,448z"/>
	</g>
</g>
<g>
	<g>
		<circle cx="53.333" cy="53.333" r="10.667"/>
	</g>
</g>
<g>
</g>
<g>
</g>
<g>
</g>
<g>
</g>
<g>
</g>
<g>
</g>
<g>
</g>
<g>
</g>
<g>
</g>
<g>
</g>
<g>
</g>
<g>
</g>
<g>
</g>
<g>
</g>
<g>
</g>
</svg>
