<svg id="Twitter" xmlns="http://www.w3.org/2000/svg" width="42" height="42" viewBox="0 0 42 42">
  <path id="Icon_awesome-twitter-square" data-name="Icon awesome-twitter-square" d="M37.5,2.25H4.5A4.5,4.5,0,0,0,0,6.75v33a4.5,4.5,0,0,0,4.5,4.5h33a4.5,4.5,0,0,0,4.5-4.5v-33A4.5,4.5,0,0,0,37.5,2.25ZM32.915,17.138c.019.262.019.534.019.8,0,8.128-6.187,17.494-17.494,17.494A17.413,17.413,0,0,1,6,32.672a12.954,12.954,0,0,0,1.481.075,12.327,12.327,0,0,0,7.631-2.625,6.157,6.157,0,0,1-5.747-4.266,6.627,6.627,0,0,0,2.775-.113,6.149,6.149,0,0,1-4.922-6.038v-.075a6.144,6.144,0,0,0,2.775.778,6.136,6.136,0,0,1-2.737-5.119,6.072,6.072,0,0,1,.834-3.1,17.458,17.458,0,0,0,12.675,6.431A6.162,6.162,0,0,1,31.256,13a12.048,12.048,0,0,0,3.9-1.481,6.133,6.133,0,0,1-2.7,3.384A12.236,12.236,0,0,0,36,13.95,12.942,12.942,0,0,1,32.915,17.138Z" transform="translate(0 -2.25)" fill="#0db7c4"/>
</svg>
